<?xml version="1.0" standalone="no"?>
<!DOCTYPE svg PUBLIC "-//W3C//DTD SVG 20010904//EN"
 "http://www.w3.org/TR/2001/REC-SVG-20010904/DTD/svg10.dtd">
<svg version="1.0" xmlns="http://www.w3.org/2000/svg"
 width="175.000000pt" height="118.000000pt" viewBox="0 0 175.000000 118.000000"
 preserveAspectRatio="xMidYMid meet">

<g transform="translate(0.000000,118.000000) scale(0.100000,-0.100000)"
fill="#000000" stroke="none">
<path d="M1245 1011 c-30 -13 -48 -38 -41 -57 6 -15 9 -15 29 5 29 27 63 27
77 0 10 -18 5 -28 -49 -80 -34 -32 -61 -63 -61 -69 0 -6 31 -10 75 -10 60 0
75 3 75 15 0 11 -12 15 -45 15 -25 0 -45 2 -45 5 0 2 19 22 42 43 32 30 41 46
41 71 0 18 -6 38 -14 46 -19 18 -59 26 -84 16z"/>
<path d="M1437 983 c-4 -3 -7 -17 -7 -30 0 -18 -5 -23 -26 -23 -14 0 -23 -4
-19 -10 3 -5 14 -10 24 -10 13 0 20 -10 25 -30 7 -36 26 -40 26 -5 0 14 6 27
13 29 49 15 53 19 22 25 -23 5 -31 12 -33 34 -3 26 -12 34 -25 20z"/>
<path d="M807 883 c-12 -11 -8 -138 5 -151 17 -17 278 -17 302 1 14 10 16 25
14 82 -3 63 -5 70 -25 73 -16 2 -22 -3 -25 -20 -2 -19 -10 -24 -41 -26 -29 -3
-39 1 -44 15 -4 10 -11 21 -17 25 -14 9 -46 -10 -46 -27 0 -10 -11 -15 -34
-15 -28 0 -35 4 -40 25 -6 24 -34 34 -49 18z m123 -98 c0 -11 -11 -15 -40 -15
-38 0 -49 8 -33 23 3 4 21 7 40 7 23 0 33 -5 33 -15z m150 0 c0 -11 -12 -15
-45 -15 -42 0 -54 7 -38 23 3 4 24 7 45 7 27 0 38 -4 38 -15z"/>
<path d="M377 864 c-4 -4 -7 -51 -7 -104 0 -71 4 -101 14 -109 9 -8 60 -11
157 -9 140 3 144 4 147 25 3 22 1 22 -120 25 -107 3 -123 5 -126 20 -3 16 9
18 115 20 110 3 118 4 118 23 0 19 -8 20 -117 23 -109 2 -118 4 -118 22 0 18
9 20 123 22 114 3 122 4 122 23 0 19 -8 20 -151 23 -82 1 -153 -1 -157 -4z"/>
<path d="M771 681 c-8 -5 -11 -16 -8 -25 6 -14 31 -16 196 -16 191 0 216 5
191 35 -10 12 -46 15 -189 15 -97 0 -182 -4 -190 -9z"/>
<path d="M798 604 c-10 -3 -18 -12 -18 -20 0 -11 27 -14 150 -14 125 0 150 -2
150 -15 0 -12 -25 -15 -147 -17 l-148 -3 0 -45 0 -45 175 0 c149 0 175 2 175
15 0 13 -24 15 -147 18 -123 2 -148 5 -148 17 0 13 24 15 145 15 l145 0 6 24
c3 14 3 34 -1 45 -6 19 -14 21 -98 21 -51 0 -121 2 -157 5 -36 2 -73 2 -82 -1z"/>
<path d="M343 574 c-10 -28 25 -44 93 -44 l63 0 3 -37 c3 -33 7 -38 30 -41 25
-3 28 0 34 36 l6 39 70 5 c73 6 95 16 85 42 -6 14 -33 16 -192 16 -163 0 -186
-2 -192 -16z"/>
</g>
</svg>
